<?xml version="1.0" standalone="no"?>
<!DOCTYPE svg PUBLIC "-//W3C//DTD SVG 20010904//EN"
 "http://www.w3.org/TR/2001/REC-SVG-20010904/DTD/svg10.dtd">
<svg version="1.0" xmlns="http://www.w3.org/2000/svg"
 width="512.000000pt" height="512.000000pt" viewBox="0 0 512.000000 512.000000"
 preserveAspectRatio="xMidYMid meet">
<metadata>
Created by potrace 1.14, written by Peter Selinger 2001-2017
</metadata>
<g transform="translate(0.000000,512.000000) scale(0.100000,-0.100000)"
fill="#000000" stroke="none">
<path d="M1670 4361 c-237 -52 -396 -172 -496 -376 -46 -92 -74 -203 -73 -290
0 -38 0 -187 0 -331 l-1 -260 -97 1 c-365 4 -456 -118 -388 -515 31 -176 36
-198 150 -649 53 -211 98 -391 100 -400 10 -49 144 -567 155 -601 5 -14 14
-50 21 -80 7 -30 16 -59 19 -63 7 -8 46 -11 275 -23 72 -3 153 -8 180 -9 429
-27 1757 -26 2260 0 44 2 127 7 184 9 72 4 109 10 119 20 11 11 74 283 96 421
3 17 19 93 36 170 17 76 33 155 36 175 3 19 10 53 16 75 5 22 11 47 13 55 16
81 116 544 130 600 10 42 24 108 29 133 2 15 7 35 10 45 3 9 7 28 10 42 2 14
16 84 31 155 44 213 39 283 -22 347 -67 70 -131 85 -374 86 -292 1 -261 -4
-255 37 3 19 10 55 16 80 6 25 12 60 15 78 2 17 11 82 20 142 21 144 22 156
30 250 4 44 9 87 10 96 2 9 6 63 10 120 4 57 8 118 10 136 4 50 -11 61 -95 68
-41 3 -95 8 -120 10 -25 2 -88 7 -140 10 -52 4 -96 8 -97 8 0 1 -4 38 -8 82
-11 123 -12 126 -23 137 -5 5 -27 12 -48 14 -22 3 -403 7 -849 9 -762 4 -815
3 -895 -14z"/>
</g>
</svg>
